<?xml version="1.0" encoding="UTF-8"?>
<svg id="Capa_2" data-name="Capa 2" xmlns="http://www.w3.org/2000/svg" viewBox="0 0 1000.96 218.3">
  <g id="Capa_1-2" data-name="Capa 1">
    <g>
      <path d="M344.02,118.35h64.66l36.95-32.33s1.15,0-1.15-3.46c-2.31-3.46-35.79-41.56-35.79-41.56h-85.22l-36.01,42.72,1.15,63.5,34.64,39.26h85.44l31.17-32.33s5.77-3.46-5.77-2.31c-11.55,1.15-85.44,0-85.44,0l-19.63-21.94v-31.17l19.63-23.09h30.02c2.69,2.69,5.39,5.39,8.08,8.08-1.29,1.09-3.78,3.19-6.93,5.77,0,0-10.32,8.48-35.79,27.71h0s-.17.17-.16.42c0,.14,2.31.62,10.55,1.89"/>
      <path d="M669.6,118.35h64.66l36.95-32.33s1.15,0-1.15-3.46c-2.31-3.46-35.79-41.56-35.79-41.56h-85.22l-36.01,42.72,1.15,63.5,34.64,39.26h85.44l31.17-32.33s5.77-3.46-5.77-2.31c-11.55,1.15-85.44,0-85.44,0l-19.63-21.94v-31.17l19.63-23.09h30.02c2.69,2.69,5.39,5.39,8.08,8.08-1.29,1.09-3.78,3.19-6.93,5.77,0,0-10.32,8.48-35.79,27.71h0s-.17.17-.16.42c0,.14,2.31.62,10.55,1.89"/>
      <polygon points="463.15 41 463.15 148.87 495.09 186.47 561.08 187.63 593.4 147.22 593.49 41 556.46 83.72 556.46 134.52 541.45 151.84 516.05 151.84 499.88 133.36 499.88 81.41 463.15 41"/>
      <path d="M759.23,41l24.67,27.71v127l41.56-42.72-1.15-77.36h56.57l8.08,9.24-46.18,36.95,158.18,72.74-90.59-76.2,38.64-32.33s-26.55-32.33-36.95-43.87l-152.83-1.15Z"/>
      <path d="M231.65,43.76l18.73,20.46s12.15,11.66,13.55,14.22c1.4,2.56.63,4.88.63,4.88,0,0-.19,1.85-3.59,3.57-3.41,1.72-67.64,42.17-67.64,42.17,0,0-.56.14.23.56s148.57,84.59,148.57,84.59c0,0,6.67,5.06-.7,3.93-7.37-1.12-218.48-45.67-222.42-45.32,0,0-3.15-.29-8.53-6.84-5.38-6.55-27.71-25.56-27.39-28.6.33-3.04,2.53-4.35,2.53-4.35,0,0,69.29-43.3,70.18-44.75s-5.02-3.42-5.02-3.42L.93,2.34S-2.3-1,3.28.3c5.58,1.3,217.38,40.55,224.45,41.72,0,0,2.91.54,3.78,1.71"/>
    </g>
  </g>
</svg>