<?xml version="1.0" encoding="UTF-8"?>
<svg id="Capa_2" data-name="Capa 2" xmlns="http://www.w3.org/2000/svg" viewBox="0 0 344.9 218.3">
  <defs>
    <style>
      .cls-1 {
        fill: #fff;
      }
    </style>
  </defs>
  <g id="Capa_1-2" data-name="Capa 1">
    <path class="cls-1" d="M231.65,43.76l18.73,20.46s12.15,11.66,13.55,14.22c1.4,2.56.63,4.88.63,4.88,0,0-.19,1.85-3.59,3.57-3.41,1.72-67.64,42.17-67.64,42.17,0,0-.56.14.23.56s148.57,84.59,148.57,84.59c0,0,6.67,5.06-.7,3.93-7.37-1.12-218.48-45.67-222.42-45.32,0,0-3.15-.29-8.53-6.84-5.38-6.55-27.71-25.56-27.39-28.6.33-3.04,2.53-4.35,2.53-4.35,0,0,69.29-43.3,70.18-44.75s-5.02-3.42-5.02-3.42L.93,2.34S-2.3-1,3.28.3c5.58,1.3,217.38,40.55,224.45,41.72,0,0,2.91.54,3.78,1.71"/>
  </g>
</svg>